<svg width="79" height="79" viewBox="0 0 79 79" fill="none" xmlns="http://www.w3.org/2000/svg">
<rect width="79" height="79" rx="30" fill="#0094FF"/>
<path d="M35.2604 19C34.4492 19 33.7917 19.6576 33.7917 20.4688V21.9375H25.4688C24.6576 21.9375 24 22.5951 24 23.4062C24 24.2174 24.6576 24.875 25.4688 24.875H52.8854C53.6966 24.875 54.3542 24.2174 54.3542 23.4062C54.3542 22.5951 53.6966 21.9375 52.8854 21.9375H44.5625V20.4688C44.5625 19.6576 43.9049 19 43.0938 19H35.2604Z" fill="#93D2FF"/>
<path d="M41.2542 43.9687L44.1323 46.8468C44.7059 47.4204 44.7059 48.3504 44.1323 48.924C43.5587 49.4975 42.6288 49.4975 42.0552 48.924L39.1771 46.0459L36.299 48.924C35.7254 49.4976 34.7955 49.4976 34.2219 48.924C33.6483 48.3504 33.6483 47.4204 34.2219 46.8469L37.1 43.9687L34.2219 41.0906C33.6483 40.517 33.6483 39.5871 34.2219 39.0135C34.7954 38.4399 35.7254 38.4399 36.299 39.0135L39.1771 41.8916L42.0552 39.0135C42.6288 38.4399 43.5588 38.4399 44.1323 39.0135C44.7059 39.5871 44.7059 40.5171 44.1323 41.0906L41.2542 43.9687Z" fill="#93D2FF"/>
<path fill-rule="evenodd" clip-rule="evenodd" d="M27.4103 30.0982C27.4929 29.3544 28.1217 28.7917 28.8701 28.7917H49.4841C50.2325 28.7917 50.8612 29.3544 50.9439 30.0982L51.3358 33.6259C52.0463 40.0204 52.0463 46.4741 51.3358 52.8687L51.2972 53.2159C51.0152 55.7542 49.048 57.7782 46.5187 58.1323C41.648 58.8142 36.7061 58.8142 31.8354 58.1323C29.3062 57.7782 27.339 55.7542 27.0569 53.2159L27.0183 52.8687C26.3078 46.4741 26.3078 40.0204 27.0183 33.6259L27.4103 30.0982ZM30.1847 31.7292L29.9379 33.9502C29.2513 40.1292 29.2513 46.3653 29.9379 52.5443L29.9765 52.8915C30.1102 54.0954 31.0432 55.0553 32.2427 55.2232C36.8432 55.8673 41.511 55.8673 46.1114 55.2232C47.311 55.0553 48.2439 54.0954 48.3777 52.8915L48.4163 52.5443C49.1028 46.3653 49.1028 40.1292 48.4163 33.9502L48.1695 31.7292H30.1847Z" fill="#93D2FF"/>
</svg>
