<svg width="21" height="21" viewBox="0 0 21 21" fill="none" xmlns="http://www.w3.org/2000/svg">
<g filter="url(#filter0_d_16_7)">
<path d="M12.7808 3.0625C12.8968 3.0625 13.0081 3.10859 13.0901 3.19064L15.565 5.66551C15.7359 5.83637 15.7359 6.11338 15.565 6.28423L7.52167 14.3276C7.4667 14.3825 7.39808 14.4219 7.32287 14.4415L3.973 15.3165C3.82272 15.3558 3.6629 15.3124 3.55307 15.2026C3.44325 15.0927 3.39988 14.9329 3.43914 14.7826L4.31414 11.4328C4.33378 11.3576 4.37311 11.2889 4.42807 11.234L12.4714 3.19064C12.5535 3.10859 12.6647 3.0625 12.7808 3.0625Z" fill="#38ABFF"/>
<path d="M3.5 16.8438C3.13756 16.8438 2.84375 17.1376 2.84375 17.5C2.84375 17.8624 3.13756 18.1562 3.5 18.1562H16.625C16.9874 18.1562 17.2812 17.8624 17.2812 17.5C17.2812 17.1376 16.9874 16.8438 16.625 16.8438H3.5Z" fill="#38ABFF"/>
</g>
<defs>
<filter id="filter0_d_16_7" x="-2" y="-2" width="25" height="25" filterUnits="userSpaceOnUse" color-interpolation-filters="sRGB">
<feFlood flood-opacity="0" result="BackgroundImageFix"/>
<feColorMatrix in="SourceAlpha" type="matrix" values="0 0 0 0 0 0 0 0 0 0 0 0 0 0 0 0 0 0 127 0" result="hardAlpha"/>
<feOffset/>
<feGaussianBlur stdDeviation="1"/>
<feComposite in2="hardAlpha" operator="out"/>
<feColorMatrix type="matrix" values="0 0 0 0 0.0975001 0 0 0 0 0.619045 0 0 0 0 1 0 0 0 1 0"/>
<feBlend mode="normal" in2="BackgroundImageFix" result="effect1_dropShadow_16_7"/>
<feBlend mode="normal" in="SourceGraphic" in2="effect1_dropShadow_16_7" result="shape"/>
</filter>
</defs>
</svg>
