<svg width="79" height="79" viewBox="0 0 79 79" fill="none" xmlns="http://www.w3.org/2000/svg">
<g filter="url(#filter0_i_32_23)">
<rect width="79" height="79" rx="30" fill="#0094FF"/>
<path d="M29.9432 26.6932C30.6023 26.0342 30.6023 24.9658 29.9432 24.3068C29.2842 23.6477 28.2158 23.6477 27.5568 24.3068L23.0568 28.8068C22.3977 29.4658 22.3977 30.5342 23.0568 31.1932L27.5568 35.6932C28.2158 36.3523 29.2842 36.3523 29.9432 35.6932C30.6023 35.0342 30.6023 33.9658 29.9432 33.3068L28.324 31.6875H51.25C52.182 31.6875 52.9375 30.932 52.9375 30C52.9375 29.068 52.182 28.3125 51.25 28.3125H28.324L29.9432 26.6932Z" fill="#93D2FF"/>
<path d="M50.0568 42.3068C49.3978 42.9658 49.3978 44.0342 50.0568 44.6932L51.676 46.3125H28.75C27.818 46.3125 27.0625 47.068 27.0625 48C27.0625 48.932 27.818 49.6875 28.75 49.6875H51.676L50.0568 51.3068C49.3978 51.9658 49.3978 53.0342 50.0568 53.6932C50.7158 54.3523 51.7842 54.3523 52.4432 53.6932L56.9432 49.1932C57.6023 48.5342 57.6023 47.4658 56.9432 46.8068L52.4432 42.3068C51.7842 41.6477 50.7158 41.6477 50.0568 42.3068Z" fill="#93D2FF"/>
</g>
<defs>
<filter id="filter0_i_32_23" x="0" y="0" width="83" height="84" filterUnits="userSpaceOnUse" color-interpolation-filters="sRGB">
<feFlood flood-opacity="0" result="BackgroundImageFix"/>
<feBlend mode="normal" in="SourceGraphic" in2="BackgroundImageFix" result="shape"/>
<feColorMatrix in="SourceAlpha" type="matrix" values="0 0 0 0 0 0 0 0 0 0 0 0 0 0 0 0 0 0 127 0" result="hardAlpha"/>
<feOffset dx="4" dy="5"/>
<feGaussianBlur stdDeviation="3"/>
<feComposite in2="hardAlpha" operator="arithmetic" k2="-1" k3="1"/>
<feColorMatrix type="matrix" values="0 0 0 0 0 0 0 0 0 0 0 0 0 0 0 0 0 0 0.25 0"/>
<feBlend mode="normal" in2="shape" result="effect1_innerShadow_32_23"/>
</filter>
</defs>
</svg>
