<svg width="37" height="37" viewBox="0 0 37 37" fill="none" xmlns="http://www.w3.org/2000/svg">
<g filter="url(#filter0_d_15_5)">
<path d="M24.7682 13.867C25.2197 13.4154 25.2197 12.6833 24.7682 12.2318C24.3166 11.7802 23.5845 11.7802 23.133 12.2318L18.5 16.8648L13.867 12.2318C13.4154 11.7802 12.6833 11.7802 12.2318 12.2318C11.7802 12.6833 11.7802 13.4154 12.2318 13.867L16.8648 18.5L12.2318 23.133C11.7802 23.5846 11.7802 24.3167 12.2318 24.7682C12.6833 25.2197 13.4154 25.2197 13.867 24.7682L18.5 20.1352L23.133 24.7682C23.5846 25.2197 24.3167 25.2197 24.7682 24.7682C25.2197 24.3167 25.2197 23.5846 24.7682 23.133L20.1352 18.5L24.7682 13.867Z" fill="#38ABFF"/>
</g>
<defs>
<filter id="filter0_d_15_5" x="-2" y="-2" width="41" height="41" filterUnits="userSpaceOnUse" color-interpolation-filters="sRGB">
<feFlood flood-opacity="0" result="BackgroundImageFix"/>
<feColorMatrix in="SourceAlpha" type="matrix" values="0 0 0 0 0 0 0 0 0 0 0 0 0 0 0 0 0 0 127 0" result="hardAlpha"/>
<feOffset/>
<feGaussianBlur stdDeviation="1"/>
<feComposite in2="hardAlpha" operator="out"/>
<feColorMatrix type="matrix" values="0 0 0 0 0.0975001 0 0 0 0 0.619045 0 0 0 0 1 0 0 0 1 0"/>
<feBlend mode="normal" in2="BackgroundImageFix" result="effect1_dropShadow_15_5"/>
<feBlend mode="normal" in="SourceGraphic" in2="effect1_dropShadow_15_5" result="shape"/>
</filter>
</defs>
</svg>
