<svg width="79" height="79" viewBox="0 0 79 79" fill="none" xmlns="http://www.w3.org/2000/svg">
<g filter="url(#filter0_i_32_36)">
<rect width="79" height="79" rx="30" fill="#0094FF"/>
<path fill-rule="evenodd" clip-rule="evenodd" d="M56.2052 24.8719C56.7788 24.2983 56.7788 23.3684 56.2052 22.7948C55.6317 22.2212 54.7017 22.2212 54.1281 22.7948L22.7948 54.1281C22.2212 54.7017 22.2212 55.6317 22.7948 56.2052C23.3684 56.7788 24.2983 56.7788 24.8719 56.2052L30.4471 50.6301C33.1228 51.8896 36.2045 52.7188 39.5 52.7188C44.7562 52.7188 49.4686 50.6095 52.857 48.0089C54.5544 46.7061 55.9563 45.2527 56.9466 43.8257C57.9096 42.4381 58.5938 40.9153 58.5938 39.5C58.5938 38.0847 57.9096 36.5619 56.9466 35.1743C55.9563 33.7473 54.5544 32.2939 52.857 30.9911C52.3437 30.5971 51.7999 30.2144 51.2285 29.8486L56.2052 24.8719ZM49.0949 31.9822L45.627 35.4501C46.396 36.611 46.8438 38.0032 46.8438 39.5C46.8438 43.5559 43.5558 46.8438 39.5 46.8438C38.0032 46.8438 36.611 46.396 35.4501 45.6271L32.6757 48.4015C34.7623 49.2515 37.0758 49.7813 39.5 49.7813C43.9778 49.7813 48.0779 47.9739 51.0685 45.6786C52.5606 44.5335 53.7399 43.2942 54.5333 42.1509C55.3541 40.9682 55.6563 40.0431 55.6563 39.5C55.6563 38.957 55.3541 38.0318 54.5333 36.8491C53.7399 35.7058 52.5606 34.4665 51.0685 33.3214C50.4552 32.8507 49.7952 32.4005 49.0949 31.9822ZM37.6003 43.4768C38.1755 43.7521 38.8198 43.9063 39.5 43.9063C41.9335 43.9063 43.9063 41.9335 43.9063 39.5C43.9063 38.8198 43.7521 38.1755 43.4768 37.6003L37.6003 43.4768Z" fill="#93D2FF"/>
<path d="M39.5 26.2813C41.6601 26.2813 43.7284 26.6375 45.6507 27.2377C45.8282 27.2931 45.8812 27.5167 45.7497 27.6482L43.7651 29.6328C43.7033 29.6946 43.6136 29.7195 43.5285 29.6993C42.2364 29.392 40.8863 29.2188 39.5 29.2188C35.0222 29.2188 30.9221 31.0261 27.9315 33.3214C26.4394 34.4665 25.2601 35.7058 24.4667 36.8491C23.6459 38.0318 23.3438 38.957 23.3438 39.5C23.3438 40.0431 23.6459 40.9682 24.4667 42.1509C25.1986 43.2055 26.2588 44.3418 27.5899 45.4105C27.7071 45.5046 27.7181 45.6798 27.6118 45.7861L25.8797 47.5182C25.7894 47.6085 25.6454 47.6163 25.5467 47.5352C24.1161 46.3588 22.9253 45.082 22.0534 43.8257C21.0904 42.4381 20.4062 40.9153 20.4062 39.5C20.4062 38.0847 21.0904 36.5619 22.0534 35.1743C23.0437 33.7473 24.4456 32.2939 26.143 30.9911C29.5314 28.3905 34.2438 26.2813 39.5 26.2813Z" fill="#93D2FF"/>
<path d="M39.5 32.1563C39.8819 32.1563 40.2569 32.1854 40.6231 32.2416C40.8185 32.2716 40.8891 32.5088 40.7493 32.6486L38.0653 35.3326C36.7859 35.773 35.773 36.7859 35.3326 38.0653L32.6486 40.7493C32.5088 40.8891 32.2716 40.8185 32.2416 40.6231C32.1854 40.2569 32.1563 39.8819 32.1563 39.5C32.1563 35.4442 35.4442 32.1563 39.5 32.1563Z" fill="#93D2FF"/>
</g>
<defs>
<filter id="filter0_i_32_36" x="0" y="0" width="83" height="84" filterUnits="userSpaceOnUse" color-interpolation-filters="sRGB">
<feFlood flood-opacity="0" result="BackgroundImageFix"/>
<feBlend mode="normal" in="SourceGraphic" in2="BackgroundImageFix" result="shape"/>
<feColorMatrix in="SourceAlpha" type="matrix" values="0 0 0 0 0 0 0 0 0 0 0 0 0 0 0 0 0 0 127 0" result="hardAlpha"/>
<feOffset dx="4" dy="5"/>
<feGaussianBlur stdDeviation="3"/>
<feComposite in2="hardAlpha" operator="arithmetic" k2="-1" k3="1"/>
<feColorMatrix type="matrix" values="0 0 0 0 0 0 0 0 0 0 0 0 0 0 0 0 0 0 0.25 0"/>
<feBlend mode="normal" in2="shape" result="effect1_innerShadow_32_36"/>
</filter>
</defs>
</svg>
